<svg width="111" height="47" viewBox="0 0 111 47" fill="none" xmlns="http://www.w3.org/2000/svg">
<path d="M40.2157 4.9311C40.05 4.9311 39.9157 5.06541 39.9157 5.2311V16.7689C39.9157 16.9346 40.05 17.0689 40.2157 17.0689H40.9261C42.3912 17.0689 43.4353 16.61 44.0584 15.6922C44.6815 14.766 44.9931 13.1956 44.9931 10.9811C44.9931 8.78337 44.6815 7.22562 44.0584 6.30781C43.4353 5.39 42.3912 4.9311 40.9261 4.9311H40.2157ZM36.1897 1.87141C36.1897 1.70573 36.324 1.57141 36.4897 1.57141H40.1809C43.2627 1.57141 45.4815 2.30818 46.8371 3.78173C48.1928 5.24686 48.8706 7.64664 48.8706 10.9811C48.8706 14.3239 48.1928 16.7363 46.8371 18.2183C45.4815 19.6918 43.2627 20.4286 40.1809 20.4286H36.4897C36.324 20.4286 36.1897 20.2943 36.1897 20.1286V1.87141Z" fill="black"/>
<path d="M50.3685 2.00758C50.2668 1.80799 50.4118 1.57141 50.6358 1.57141H53.9746C54.0896 1.57141 54.1946 1.63725 54.2447 1.74086L57.5559 8.59178C57.6651 8.81754 57.9865 8.81776 58.096 8.59214L61.419 1.7405C61.4692 1.63708 61.574 1.57141 61.6889 1.57141H65.028C65.252 1.57141 65.397 1.80799 65.2953 2.00758L59.7276 12.9378C59.7061 12.9799 59.6949 13.0266 59.6949 13.0739V20.1286C59.6949 20.2943 59.5606 20.4286 59.3949 20.4286H56.2689C56.1032 20.4286 55.9689 20.2943 55.9689 20.1286V13.0739C55.9689 13.0266 55.9577 12.9799 55.9362 12.9378L50.3685 2.00758Z" fill="black"/>
<path d="M68.773 20.4286C68.6073 20.4286 68.473 20.2943 68.473 20.1286V1.87141C68.473 1.70573 68.6073 1.57141 68.773 1.57141H71.899C72.0647 1.57141 72.199 1.70573 72.199 1.87141V16.8447C72.199 17.0104 72.3333 17.1447 72.499 17.1447H79.8687C80.0344 17.1447 80.1687 17.279 80.1687 17.4447V20.1286C80.1687 20.2943 80.0344 20.4286 79.8687 20.4286H68.773Z" fill="black"/>
<path d="M89.2909 6.26241C89.2196 5.9515 88.7767 5.95184 88.7059 6.26286L87.3252 12.3323C87.2825 12.52 87.4251 12.6988 87.6177 12.6988H90.3891C90.5819 12.6988 90.7246 12.5197 90.6816 12.3318L89.2909 6.26241ZM86.6641 1.79323C86.6994 1.66234 86.8181 1.57141 86.9537 1.57141H91.0537C91.1893 1.57141 91.308 1.66234 91.3434 1.79323L96.2715 20.0504C96.3229 20.2411 96.1793 20.4286 95.9818 20.4286H92.882C92.7442 20.4286 92.6242 20.3348 92.5909 20.2012L91.5423 15.9954C91.509 15.8618 91.3889 15.768 91.2512 15.768H86.7322C86.5939 15.768 86.4735 15.8625 86.4407 15.9969L85.4157 20.1997C85.3829 20.3341 85.2625 20.4286 85.1242 20.4286H82.0256C81.8281 20.4286 81.6845 20.2411 81.736 20.0504L86.6641 1.79323Z" fill="black"/>
<path d="M98.306 1.87141C98.306 1.70573 98.4403 1.57141 98.606 1.57141H102.104C102.228 1.57141 102.339 1.648 102.384 1.76401L106.984 13.7624C107.103 14.073 107.564 13.9877 107.564 13.655V1.87141C107.564 1.70573 107.698 1.57141 107.864 1.57141H110.548C110.714 1.57141 110.848 1.70573 110.848 1.87141V20.1286C110.848 20.2943 110.714 20.4286 110.548 20.4286H107.075C106.951 20.4286 106.84 20.3522 106.795 20.2365L102.17 8.22998C102.05 7.91973 101.59 8.00535 101.59 8.33782V20.1286C101.59 20.2943 101.456 20.4286 101.29 20.4286H98.606C98.4403 20.4286 98.306 20.2943 98.306 20.1286V1.87141Z" fill="black"/>
<path d="M41.0019 36.3539C39.1242 35.6382 37.8527 34.8888 37.1875 34.1057C36.5223 33.3142 36.1897 32.2532 36.1897 30.9228C36.1897 29.2135 36.737 27.8705 37.8316 26.8937C38.9263 25.917 40.4293 25.4286 42.3407 25.4286C43.208 25.4286 44.0753 25.5296 44.9426 25.7317C45.75 25.912 46.5501 26.1762 47.343 26.5244C47.4506 26.5717 47.5192 26.6787 47.5192 26.7962V29.6621C47.5192 29.9053 47.2437 30.0491 47.0383 29.9188C46.3941 29.5104 45.7419 29.1883 45.0815 28.9525C44.2563 28.6578 43.4395 28.5104 42.6312 28.5104C41.7302 28.5104 41.0398 28.6914 40.5598 29.0535C40.0799 29.4156 39.8399 29.9334 39.8399 30.6071C39.8399 31.1291 40.0125 31.5628 40.3577 31.908C40.7114 32.2448 41.4439 32.6195 42.5554 33.0321L44.1595 33.6384C45.6751 34.1941 46.7908 34.9309 47.5065 35.8487C48.2223 36.7665 48.5801 37.9243 48.5801 39.322C48.5801 41.225 48.016 42.648 46.8876 43.5911C45.7678 44.5258 44.0711 44.9931 41.7976 44.9931C40.8629 44.9931 39.9241 44.8794 38.981 44.6521C38.1055 44.447 37.2557 44.1458 36.4319 43.7486C36.3296 43.6993 36.2655 43.5951 36.2655 43.4815V40.3964C36.2655 40.1526 36.5418 40.0095 36.7452 40.1438C37.5689 40.6875 38.3689 41.1041 39.1452 41.3934C40.0799 41.7387 41.0019 41.9113 41.9113 41.9113C42.8291 41.9113 43.5406 41.705 44.0458 41.2924C44.551 40.8714 44.8036 40.2862 44.8036 39.5368C44.8036 38.9726 44.6352 38.48 44.2984 38.059C43.9616 37.6296 43.4732 37.2928 42.8333 37.0486L41.0019 36.3539Z" fill="black"/>
<path d="M51.2325 26.0696C51.2325 25.9039 51.3668 25.7696 51.5325 25.7696H55.4491C55.5844 25.7696 55.703 25.8603 55.7386 25.9909L57.6363 32.9742C57.7166 33.2695 58.1356 33.2692 58.2154 32.9738L60.1023 25.9913C60.1376 25.8605 60.2563 25.7696 60.3919 25.7696H64.3334C64.499 25.7696 64.6334 25.9039 64.6334 26.0696V44.3268C64.6334 44.4925 64.499 44.6268 64.3334 44.6268H61.7252C61.5596 44.6268 61.4252 44.4925 61.4252 44.3268V32.0364C61.4252 31.6812 60.9172 31.6206 60.8337 31.9658L59.4852 37.539C59.4526 37.6737 59.3321 37.7685 59.1936 37.7685H56.6969C56.5587 37.7685 56.4384 37.6741 56.4055 37.5399L55.032 31.9344C54.9476 31.59 54.4406 31.6512 54.4406 32.0058V44.3268C54.4406 44.4925 54.3063 44.6268 54.1406 44.6268H51.5325C51.3668 44.6268 51.2325 44.4925 51.2325 44.3268V26.0696Z" fill="black"/>
<path d="M68.2046 29.0535C68.0389 29.0535 67.9046 28.9192 67.9046 28.7535V26.0696C67.9046 25.9039 68.0389 25.7696 68.2046 25.7696H78.8331C78.9987 25.7696 79.1331 25.9039 79.1331 26.0696V28.7535C79.1331 28.9192 78.9987 29.0535 78.8331 29.0535H75.6818C75.5161 29.0535 75.3818 29.1878 75.3818 29.3535V41.0429C75.3818 41.2086 75.5161 41.3429 75.6818 41.3429H78.8331C78.9987 41.3429 79.1331 41.4772 79.1331 41.6429V44.3268C79.1331 44.4925 78.9987 44.6268 78.8331 44.6268H68.2046C68.0389 44.6268 67.9046 44.4925 67.9046 44.3268V41.6429C67.9046 41.4772 68.0389 41.3429 68.2046 41.3429H71.3559C71.5215 41.3429 71.6559 41.2086 71.6559 41.0429V29.3535C71.6559 29.1878 71.5215 29.0535 71.3559 29.0535H68.2046Z" fill="black"/>
<path d="M90.9677 44.3268C90.9677 44.4925 90.8334 44.6268 90.6677 44.6268H87.5418C87.3761 44.6268 87.2418 44.4925 87.2418 44.3268V29.3283C87.2418 29.1626 87.1075 29.0283 86.9418 29.0283H82.7549C82.5892 29.0283 82.4549 28.8939 82.4549 28.7283V26.0696C82.4549 25.9039 82.5892 25.7696 82.7549 25.7696H95.4547C95.6203 25.7696 95.7547 25.9039 95.7547 26.0696V28.7283C95.7547 28.8939 95.6203 29.0283 95.4547 29.0283H91.2677C91.1021 29.0283 90.9677 29.1626 90.9677 29.3283V44.3268Z" fill="black"/>
<path d="M98.6344 26.0696C98.6344 25.9039 98.7687 25.7696 98.9344 25.7696H102.06C102.226 25.7696 102.36 25.9039 102.36 26.0696V32.6563C102.36 32.822 102.495 32.9563 102.66 32.9563H106.721C106.887 32.9563 107.021 32.822 107.021 32.6563V26.0696C107.021 25.9039 107.155 25.7696 107.321 25.7696H110.447C110.613 25.7696 110.747 25.9039 110.747 26.0696V44.3268C110.747 44.4925 110.613 44.6268 110.447 44.6268H107.321C107.155 44.6268 107.021 44.4925 107.021 44.3268V36.5402C107.021 36.3745 106.887 36.2402 106.721 36.2402H102.66C102.495 36.2402 102.36 36.3745 102.36 36.5402V44.3268C102.36 44.4925 102.226 44.6268 102.06 44.6268H98.9344C98.7687 44.6268 98.6344 44.4925 98.6344 44.3268V26.0696Z" fill="black"/>
<path d="M6.74413 43.5258C6.61205 43.7683 6.70238 44.0732 6.94854 44.1983C15.2473 48.4163 25.4483 45.2879 29.9299 37.0597C34.4115 28.8315 31.5064 18.5646 23.4615 13.8808C23.2228 13.7419 22.9176 13.8314 22.7855 14.0739L6.74413 43.5258Z" fill="black"/>
<path d="M26.0952 3.03877C26.2272 2.79627 26.1369 2.49132 25.8908 2.3662C17.592 -1.85181 7.39104 1.27664 2.90943 9.50484C-1.57218 17.733 1.33286 27.9999 9.37784 32.6837C9.61649 32.8227 9.92166 32.7331 10.0537 32.4906L26.0952 3.03877Z" fill="black"/>
</svg>
