<?xml version="1.0" encoding="UTF-8"?>
<svg id="a" xmlns="http://www.w3.org/2000/svg" xmlns:xlink="http://www.w3.org/1999/xlink"
    viewBox="0 0 327.3 202.9">
    <defs>
        <linearGradient id="b" x1="-331.56" y1="596.75" x2="-330.56" y2="597.75"
            gradientTransform="translate(24729.6 55298.92) scale(74.6 -92.52)"
            gradientUnits="userSpaceOnUse">
            <stop offset="0" stop-color="#000" />
            <stop offset="1" stop-color="#000" />
        </linearGradient>
        <linearGradient id="c" x1="-329.17" y1="596.51" x2="-328.17" y2="597.51"
            gradientTransform="translate(16257.76 53032.66) scale(49.13 -88.7)"
            gradientUnits="userSpaceOnUse">
            <stop offset="0" stop-color="#000" />
            <stop offset="1" stop-color="#000" />
        </linearGradient>
        <linearGradient id="d" x1="-321.74" y1="596.8" x2="-320.74" y2="597.8"
            gradientTransform="translate(7749.41 57128.92) scale(23.6 -95.56)"
            gradientUnits="userSpaceOnUse">
            <stop offset="0" stop-color="#000" />
            <stop offset="1" stop-color="#000" />
        </linearGradient>
        <linearGradient id="e" x1="-330.45" y1="594.07" x2="-329.45" y2="595.07"
            gradientTransform="translate(20344.36 34416.46) scale(60.97 -57.77)"
            gradientUnits="userSpaceOnUse">
            <stop offset="0" stop-color="#000" />
            <stop offset="1" stop-color="#000" />
        </linearGradient>
        <linearGradient id="f" x1="-330.5" y1="594.21" x2="-329.5" y2="595.21"
            gradientTransform="translate(20426.29 34917.98) scale(61 -58.6)"
            gradientUnits="userSpaceOnUse">
            <stop offset="0" stop-color="#000" />
            <stop offset="1" stop-color="#000" />
        </linearGradient>
        <linearGradient id="g" x1="-330.49" y1="596.68" x2="-329.49" y2="597.68"
            gradientTransform="translate(20097.92 55163.75) scale(60.8 -92.11)"
            gradientUnits="userSpaceOnUse">
            <stop offset="0" stop-color="#000" />
            <stop offset="1" stop-color="#000" />
        </linearGradient>
        <linearGradient id="h" x1="-331.76" y1="593.97" x2="-330.76" y2="594.97"
            gradientTransform="translate(26388.12 33863.42) scale(79.3 -56.68)"
            gradientUnits="userSpaceOnUse">
            <stop offset="0" stop-color="#000" />
            <stop offset="1" stop-color="#000" />
        </linearGradient>
        <linearGradient id="i" x1="-318.94" y1="593.74" x2="-317.94" y2="594.74"
            gradientTransform="translate(6469.31 32875.3) scale(19.73 -55.03)"
            gradientUnits="userSpaceOnUse">
            <stop offset="0" stop-color="#000" />
            <stop offset="1" stop-color="#000" />
        </linearGradient>
        <linearGradient id="j" x1="-319.79" y1="586.15" x2="-318.79" y2="587.15"
            gradientTransform="translate(6792.69 15828.8) scale(20.69 -26.77)"
            gradientUnits="userSpaceOnUse">
            <stop offset="0" stop-color="#000" />
            <stop offset="1" stop-color="#000" />
        </linearGradient>
        <linearGradient id="k" x1="-330.42" y1="596.58" x2="-329.42" y2="597.58"
            gradientTransform="translate(20175.14 54340.04) scale(60.44 -90.74)"
            gradientUnits="userSpaceOnUse">
            <stop offset="0" stop-color="#000" />
            <stop offset="1" stop-color="#000" />
        </linearGradient>
        <linearGradient id="l" x1="-329.89" y1="596.65" x2="-328.89" y2="597.65"
            gradientTransform="translate(18540.36 55416.41) scale(55.37 -92.53)"
            gradientUnits="userSpaceOnUse">
            <stop offset="0" stop-color="#000" />
            <stop offset="1" stop-color="#000" />
        </linearGradient>
    </defs>
    <path
        d="m66.9,17.09c-3.7-3.7-6.2-6.1-7.4-7.1l-8.3-3.7c-1.9-.4-3.3-1-4.4-1.8-1.1-.4-2.9-.5-5.4-.5-4.5-1.5-9.1-1.9-13.7-1-4.7.9-7.3,1.5-7.7,1.9-2.8,1-5,1.6-6.4,1.9-1.4.2-2.3.5-2.6,1-.3.2-1,.5-2,1.1-.9.5-1.4.8-1.6,1-.2.1-.7.4-1.5.8-.8.4-1.3.6-1.5.8-.2.1-.6.4-1.1.8-.5.4-.9.7-1.1,1-.1.2-.3.5-.7,1-.3.4-.5.7-.7,1.1s-.3.8-.5,1.4c-.1.5-.2,1-.3,1.5,1.2,3.3,2.7,5.8,4.6,7.6,1.9,1.7,4.6,2.5,8.3,2.5-.4,3.7-1,5.9-1.6,6.4.1,1.6.1,2.7-.2,3.3s-.3,2.8-.3,6.7c0,.8.1,1.9.2,3.3.1,1.4-.1,2.5-.7,3.3-.5,3.5-.6,5.6-.2,6.1-.7,2.7-1,5-1,6.7s-.2,3.2-.5,4.5-.5,2.4-.5,3.4c0,.9.1,1.5.3,1.9-.1,2.1-.1,3.3,0,3.7.7,4.8,1.7,8.1,3.1,9.8.2.2,1.2.8,2.9,1.9,1.3,1.4,2.2,2.1,2.6,2.2,1.4,1.3,3,2.2,4.7,2.9.8.5,2.7.7,5.9.4,2.2-.4,3.5-.7,3.9-1,.5-.3,5-2.1,13.3-5.6.3-.1,1.7-.9,4.3-2.5.5-.4,3.1-2.3,7.5-5.7.5-.6,1.7-1.9,3.6-3.8,1.9-2,3.5-4,4.9-6,1.5-2.1,2.3-3.2,2.3-3.4,1-1.6,1.6-3,1.8-4.1,2.6-3.7,4.4-9.7,5.4-18,0-4.4-.1-7.4-.2-9.1-.9-6.5-3.4-12.6-7.5-18.6Zm-9.8,30c-.2,2.9-.7,4.9-1.3,6-1.2,3.8-2.2,6.2-3.1,7.2l-3.3,5.6-3.1,3.4v.1c-2.3,2.1-3.7,3.2-4.3,3.3l-2.3,1.8c-.4.2-2.6,1.6-6.4,4.2-1.4,1.2-3.1,2-5.1,2.3,0-7.1.8-17.8,2.5-32,.2-2.5.3-3.8.3-4l1.5-12.5.8-5c0-3,.1-5.1.2-6.4,2.5-1.3,4.4-1.9,5.6-1.9,2.6-.6,5.3-.3,8.2,1.1,7,3.3,10.5,10.2,10.5,20.9-.3,1-.5,3-.7,5.9Z"
        style="fill:url(#b);" />
    <path
        d="m88.2,78.49l.3,1.6v1.5c.1,1.3.3,2,.7,2.3.2,1.5.8,2.8,1.8,3.8,1.1.7,2,1.5,2.8,2.3,1.5,1.3,5.2,1.9,11,1.9l2.5.1c.7,0,1,0,1,.1l6.1-.1c2.2-.5,3.3-1.1,3.4-1.6.8-.8,1.4-1.8,2-3,.5-1.2,1.3-2.5,2.1-3.8,0,.5-.1,1.3-.3,2.3-.2.9-.3,2-.3,3.4v1.5c-1.3,3.5-2,6.2-2,8-1.1,1.8-1.6,3.2-1.6,4.1-1.7,2.7-3.5,4.7-5.4,6-.2,0-.9.3-2,.8-.8.5-1.5.4-2.3-.1l-5.4-2.2c-2.8-1.4-4.8-2.3-5.9-2.7-2.6-1.1-4.7-.8-6.4,1-.9,2.4-1.2,4-1,5s.8,2,1.6,3.1c1,1.2,4.4,3,10.1,5.5,2,1.6,6.2,2.7,12.8,3.3,1.4,0,2.3,0,2.6.1,4.5-.5,7.6-1.5,9.3-3,2.5-1.5,4.5-3.4,5.9-5.5,1.5-2.1,2.9-5.9,4.1-11.4,0-1,.2-4,.5-8.9.4-4.9.6-8.1.5-9.5-.1-2.3-.1-3.5,0-3.5-.2-10.1-.3-15.4-.2-16.1,0-1.7-.1-4.9-.3-9.4v-9.4c.5-4.8.5-8.5-.2-11.2-.7-.5-2.1-.8-4.3-.8l-2.5.1c-3.7.9-5.9,2.1-6.7,3.5-1.4,2.5-2.2,5.5-2.5,9.1v4.4c-.2,6.5-1.1,12.1-2.6,17-.8.9-1.3,1.7-1.5,2.3-.1.5-.5,1.5-1.3,2.9-.8,1.3-1.4,2.5-1.8,3.7-.3,1.1-.8,2.1-1.5,3-.5.8-1.1,1.5-1.8,1.9-.7.4-1.6.4-2.8.1-1.1-.4-1.9-1-2.3-2-.4-1.1-.7-4.3-.7-9.5v-6.1c0-.8.1-1.9.3-3.1.3-1.4.5-3.5.5-6.3,0-.3.1-1,.2-2,.2-1.1.3-2.4.3-3.8l.3-3.3c0-.5-.1-1-.2-1.6l1.8-6c-1.9-1.6-4.1-2.5-6.7-2.7-2.5-.3-4.4,0-5.7.8-.9,1.1-1.4,2-1.5,2.6,0,.6-.2,1.8-.7,3.5-.1.7-.5,1.4-1.1,1.9-.7,1.9-1,3-1,3.4l-1.3,4.2-.3,1.9c-.3.5-.4,1-.2,1.5,0,.5-.2,1-.5,1.5-.2.4-.3,4.6-.3,12.7v1.6c0,2.5.1,4.2.3,5.3.3,1.2.4,1.8.3,2Z"
        style="fill:url(#c);" />
    <path
        d="m179.7,92.09c.9-1.6,1.1-3,.7-4.2l-.3-1.2-.5-.8c.2-1.8,0-3.3-.7-4.4.2-1.7.1-3.1-.5-4.2-.5-1.7-.5-3.3,0-4.6-.5-1-.8-2-.8-2.9-.2-.9-.3-2.4-.3-4.4v-2.2c0-.4-.1-1-.3-1.9s-.3-3.5-.3-7.9c-.3-2.4-.5-4.7-.5-7.1l-.7-8.9v-5.2c0-3.9-.1-7-.2-9.3v-13.8c0-3.5.2-5.5.7-6.1-1.6-2.4-4.3-3.3-8-2.9-1.5.2-2.5.5-2.9.8v-.1c-1.5.7-2.9,1.9-4.3,3.4-1.3,1.5-2,2.9-2,4.2.4,2.4.4,4-.2,4.8-.2,2.9-.3,4.7-.2,5.5.1.7,0,1.5-.3,2.3,0,2.2-.2,4-.5,5.3.3.6.5,1.1.5,1.5-.8,4.8-1.1,8-1.1,9.7,0,1.5.2,3.8.5,6.8v9.3c.2,1.6.3,4,.3,7l-.3,9.1c.2,1.5.5,2.5.8,2.9.3.5.5,1.4.7,2.7v3c0,1.6.6,2.9,1.8,3.7,0,1,.3,2,.8,2.9.9,3.6,2,5.8,3.3,6.4,1.1.5,1.7,1,1.8,1.2,3.1,2.5,5.8,3.5,8.2,2.9,2.4-.7,4.1-1.8,4.8-3.3Z"
        style="fill:url(#d);" />
    <path
        d="m218,92.99c2.7-.2,4.6-1.1,5.6-2.9,3.2-3.7,4.7-5.7,4.7-5.9l2.5-5.3c0-.8.2-1.7.5-2.7,3.7,7.2,5.7,10.9,5.9,11,.5,0,1.2.3,2,1l1.3.3c1,1,2,1.5,3.1,1.5,1.7.9,2.8,1.4,3.1,1.4,1.6,0,2.8-.1,3.4-.3,4.9-1.5,6.2-3.7,3.8-6.5-1.3-1.8-2.3-3.4-2.9-4.8-.9-1.8-1.5-3.3-1.8-4.4s-.8-2.4-1.5-4-1-2.7-1.1-3.3c-.1-.5-.2-1-.3-1.2-2-5.7-3.4-11.9-4.3-18.5-.1-.8-.3-1.6-.5-2.3-.1-.8-.4-2.1-.8-3.8-.4-1.7-.8-2.7-1-3-.1-.3-1.3-.7-3.4-1.2-2.1-.5-3.8-.8-5.1-.7l-4.3-.7c-1.2,0-2.6-.2-4.3-.5-.9-.3-3.2-.5-7-.8h-2.1c-.4,0-.8,0-1-.1h-.8c-4.3.2-8.4,3.6-12.4,10.2-2.1,3.5-3.4,7.1-3.9,10.9-.4,1.5-.7,2.5-.8,2.9-.3.5-.5,2.5-.5,5.7v3.3c0,.8.3,2.7.8,5.7.1,2.1,1,4.8,2.6,8,1.7,3.2,3.5,5.5,5.2,6.8,1.7,1.4,4.3,2.5,7.7,3.5,2.5.7,5,.9,7.6.7Zm-4.7-33.6c.3-2.9,1.1-5.6,2.3-8.2,1.3-2.6,2.3-4.2,3.1-4.6,2.6.2,4.4.8,5.4,1.9,1,1,1.5,2.5,1.6,4.5.3,9.3-2.4,18.3-8.2,27-1.2,1.8-2.1,2.7-2.6,2.7-.2.1-.4,0-.7-.4-1.6-2.1-2.5-5.4-2.6-9.8.1-4.4.6-8.7,1.7-13.1Z"
        style="fill:url(#e);" />
    <path
        d="m325,44.89l-7.4-3.7-3.3-1c-2.9-.3-4.9-.4-5.9-.4-1.5.5-2.4.7-2.6.5-.8.6-1.5,1.1-2.1,1.4l-3.3,2.5-4.3,5.3c-.2.9-.5,1.5-.8,1.8l-4.3,7.4c-3.1,3.1-5.8,5.7-8.1,8,.6-3.3,1.4-7.9,2.5-13.5,1.1-4.1,1.7-6.2,1.8-6.3,0-.5.1-1.2.2-2-.1-1.5-.5-2.3-1.1-2.3-.9-.9-1.4-1.5-1.6-1.8-3.3-1.5-5.8-2.5-7.7-2.7-4.1-.7-7.1-.5-8.8.7l-1.1,2.3c-.1.8,0,1.5.3,1.9s.6,1.4.8,3.1c-.1,1.6-.1,2.7.2,3.1v2.7c0,1-.2,3.2-.5,6.7s-.6,6.7-.8,9.7v3.3c0,1.2-.1,3.2-.3,6.1-.2.5-.2.8.2,1-.1,1.2-.3,2.2-.5,3.1.4,1.5.4,2.6-.2,3.1v2.2c.4,2.2,1.6,3.5,3.4,3.8.2.2.4.3.7.3s1.9.4,4.7,1.1c2.8.7,4.6,1.2,5.4,1.4l3.1.3c2.2-.3,3.3-.6,3.4-1,1.4-3.4,2.1-5.2,2.1-5.6,1.1-1.1,1.7-2.1,2-3s.8-1.9,1.5-2.9c.8-1.1,1.2-1.8,1.3-2,.1-.3.2-.7.2-1.4.8-2.2,1.6-3.6,2.5-4.4,0-.6.3-1.2.8-1.6.5-.7,1.1-1.8,1.8-3.3l6.4-10.4c.1.1.2,1.1.2,3.1-.9,2-1.7,4.7-2.6,8.2-.9,3.4-1.4,5.6-1.5,6.7-.7,2.9-.7,5.7-.2,8.4,0,.3.1.7.2,1.4.1.6.4,1.6,1,2.9.4,2,2.2,4,5.4,5.9,1.5.6,2.8,1,3.8,1,1.1,0,2.5.1,4.3.3,2.9,0,5-.4,6.1-1.2,1.2-.8,1.9-1.6,2.1-2.3.3-.6.1-1.9-.8-3.8,0-.8-.4-1.3-1.1-1.4.2-.1.1-.6-.3-1.6-.3-1-.6-1.8-.8-2.3,0-.3-.2-1.3-.5-3.1-.3-1.8-.1-4.8.8-8.9,1.6-5.1,2.9-9.6,3.8-13.5,1.1-4.9,1.7-7.9,1.8-9-.1-1.6-.8-3-2.3-4.3Z"
        style="fill:url(#f);" />
    <path
        d="m66.6,134.39c.7-2.4-.2-6.3-2.6-11.9-.2-.3-.3-.5-.3-.7s-.4-.6-1.3-1.4c-1.4-2.6-4.7-5.2-10-7.6-2.7-.7-6.3-1.4-10.6-2-5.5.5-9.1.9-11,1.2-1.9.4-3.1.5-3.8.5l-2,.1c-.4.2-1.1.4-2,.5-1.7.7-2.6,1.2-2.6,1.5l-3.9,2.7c-.8,1.1-1.5,1.9-2.3,2.5-.7.5-1.2.9-1.6,1.2l-3.6,6c-.3.4-.5.7-.5,1,.3,1.9.1,3.3-.8,4.1-.3.9-.5,2.4-.5,4.4v2.5c-.2,3-.1,4.9.5,5.6-.1.8.1,1.8.5,2.9.4,1.1,1,1.9,1.6,2.3.2.5.5,1.5.8,2.7.1.2.2.4.2.7.1.2.4.5.8.8.4.4.7.9.7,1.6l2.6,2c.5,1.4,1.7,2.3,3.4,2.9,2.7,1.5,4.3,2.4,4.7,2.6,1.3.6,2,1,2.1,1,1.6,1.8,3.1,3,4.3,3.4s1.9.6,2,.7c.2.1.7.3,1.5.5.9.3,1.6.5,2.1.5l2.6,2c.1.2.9,1.1,2.3,2.7,1.1,1.7,1.7,3,2,3.8.2.7.3,2,.3,4s-.1,3.2-.3,3.8l-2.3,3c-2.8,1.8-6.4,1.7-10.6-.3l-6.5-4.5c-.9-.7-2.5-1.7-4.9-2.9-5.5-1.6-9.1-.7-11,2.7-.7,1.4-.7,2.5,0,3.4,0,1.5.8,3,2.3,4.5.8.8,1.5,1.7,2.1,2.7.8.9,1.6,1.4,2.5,1.4,4.1,2.4,6.4,3.8,6.7,4.2l2.9,1,3.9.3c2.3.5,3.8,1,4.6,1.2.9.3,1.9.3,2.9.1,1.5.7,3,.8,4.4.3,4.5-.4,7-1,7.5-1.9,2.8-1.5,4.9-2.8,6.2-3.8,1.3-1.1,2.7-2.5,4.3-4.2,1.5-1.8,2.3-2.9,2.3-3.1,2.1-3,2.8-5.3,2.3-7,.5-2,.6-3.4.2-4.2.2-.9.1-2.5-.3-4.9-.4-2.5-.8-3.9-1.1-4.4l-2.5-4.2-5.4-5.2c-.4-1.2-3.3-3-8.7-5.5l-1.5-1.2-3.8-1.5c0-.3-1.1-.9-3.3-1.9l-3.8-2.7c-1.9-1.7-2.8-3-2.8-4-1-1.7-1.3-4.3-.8-7.8-.1-.8-.1-1.4.2-1.8l1.6-4c0-1,.9-2.9,2.8-5.6,4.8-2.3,8.8-2.4,12.1-.3.5.5,1.4,1.8,2.5,3.7.3.5.6.9.8,1.1l.7,4.9c0,1.5.3,2.7,1,3.7l1.1,1.9c.5,1.9,2,3,4.4,3.1.8.5,2.5.4,5.1-.3,1.1-.1,2-.3,2.6-.5,1.6-.3,2.8-.7,3.4-1.4.8-.6,1-1.3.8-1.9-.3-.1-.4-1.3-.2-3.3Z"
        style="fill:url(#g);" />
    <path
        d="m157.8,187.09c-.5-1.6-.8-3.3-.8-4.9l-.5-2.3c0-.7-.3-1.3-.8-1.6v-3.8l-.3-1.2c.4-1.2.5-2.4.3-3.5-.2-1.3-.5-2-.8-2.3v-1.8c.1-.6,0-1.2-.3-1.8v-1.5c-.4-3.8-.7-6.1-.8-6.8v-1.6c-.2-1-.3-1.8-.2-2.5-.1-.5-.2-1.1-.2-2v-1.5c-1.2-1.1-2.2-1.7-3.1-1.8-.8-.1-1.1-.2-1.1-.4-.5-.2-1.1-.3-1.8-.3-3.5-1.3-6-1.2-7.5.1-2,.3-2.9.8-2.9,1.5-1.3,1.1-2.4,2.2-3.3,3.4-.8,1.2-1.3,2.1-1.5,2.7-.7.9-1,1.5-1,1.8l-2,4c-.7.5-1,1.1-1,1.8l-1.3,6.3-.7-.4c-.2-.3-.3-1.1-.3-2.6l.7-5.3v-2.2c.1-3.5.2-5.7.3-6.4s-.2-1.3-1-1.8-1.4-.9-1.8-1l-4.7-.8c-1.2-.2-2.2-.3-3.1-.4-1.1-.7-2.5-1.2-4.3-1.5-1.6-.3-2.9,0-3.8,1-.8.8-1.6,2.1-2.5,3.8-2.6,4.1-4.3,7.4-4.9,9.9-.5.6-.9,1.2-1,1.8,0,.5-.2,1-.7,1.4-.7,1.4-1.3,3.3-1.8,5.9-.2,1-.3,1.5-.3,1.6l-.8-.1v-9.1c-.1-.3-.2-1.1-.2-2.5,0-1.5-.2-4-.7-7.8-.2-4.9-.9-7.5-2-7.8-3.2-.6-5.5-.8-6.9-.4h-.3c-2.9,1.5-4.7,2.5-5.2,3s-.8,1.2-.8,2.2c0,.9-.3,2.7-.8,5.5v1.9c0,4.3.3,7.4.8,9.5v2.5c-.2,1.6-.1,3,.3,4.1-.1,1.4-.1,3.2.2,5.5.2,2.2.5,3.6.8,4.4v2.5c.2.5.3,1,.3,1.2l.8,3.3c.9,1.4,1.4,2.7,1.6,4,.4.3.9,1.4,1.3,3.4l1.6,2.3c.8,1.1,2.3,1.4,4.7,1l1.8-.3c3.2-.2,5.3-1.6,6.5-4.2l6.1-16.2c.8-2.2,2.7-6.9,5.9-14v6.7l.3,7v5.9l.2,1.9c0,1,.1,1.6.3,1.9l.2,2.6.3,3.1c.5,2.3,2.7,3.2,6.4,2.9,1.3-.5,2.4-.7,3.3-.7,1,0,1.6.1,1.8.4.7,0,1.4-.3,2.3-1,1-.7,1.6-1.4,2-1.9l5.2-13.6c0-.3.8-2.2,2.5-5.7l2.5-6.3.8,5.5v3.1c.2.5.3,1.1.3,1.8,0,.6-.1,1-.2,1,.3.6.5,1.4.5,2.2.1.8.2,1.6.3,2.5.2.7.3,1.5.3,2.3.5,1.8.7,2.8.5,3,.7.9.9,1.4.8,1.5-.3,1.1.2,1.8,1.5,2.2.8.6,1.1,1.4,1.1,2.2,1.4.8,2.6,1.1,3.4,1l1.6,1,3.4,1c.9,0,1.5-.1,1.8-.3.4-.2.8-.3,1-.4,1.3-.5,2-1.2,2-2.2l.2-1.4v-.8l-.8-3.5v-1.8h0Z"
        style="fill:url(#h);" />
    <path
        d="m196.4,168.39c-.1-4.1-.3-7.2-.5-9.3-.1-2.2-.4-4.2-1-6-.4-1.8-.8-2.9-1.1-3.1-1.5-1.5-2.6-2.5-3.3-2.7-2.6-.5-4.6-.6-5.9-.1-1.3.5-2.5,1.3-3.6,2.5-1.1,1.1-1.8,2.1-2.1,3s-.1,2.4.7,4.4c.2,1.4.2,2.6-.2,3.7-.1,2.5-.1,4.1,0,4.6.2.5.1,1.5-.3,3-.3,1.4-.5,2.5-.5,3.3v3.1l-.8,4.6v4.9c-.2,5-.1,7.9.5,8.9.4,2.1,1.5,3.5,3.1,4.4,1.6.7,2.7,1.1,3.1,1.2,1.3,1.2,2.8,1.8,4.6,1.8,1,.2,1.9.5,2.8,1,1,.5,2.1.4,3.3-.5,1.3-.8,2-2,2.1-3.7.2-1.6.2-5.8-.2-12.5-.3-7.1-.5-12.5-.7-16.5Z"
        style="fill:url(#i);" />
    <path
        d="m180.4,133.29c.1.4.2.7.3,1,.2.3.9.7,2,1.4,1.2.5,2,.9,2.5,1,.5,0,1.4-.4,2.5-1.2s1.8-1.6,2.1-2.3l1.6-2c.9-1.5,1.9-3.7,3.1-6.7,1.2-4.6,1.7-8.4,1.5-11.3-.5-.9-1.5-1.7-2.8-2.5-1.2-.8-3.4-1-6.5-.5-2,.2-3,.3-3.1.4-3.8,2.2-6,4.3-6.5,6.3-.3.7-.5,1.2-.5,1.4-1.1,1.4-1.5,3.3-1.1,5.9,0,1.1.3,2.2,1,3.3l3.3,3.4.6,2.4Z"
        style="fill:url(#j);" />
    <path
        d="m262.8,133.09c-.8-.7-2.3-1.1-4.6-1.1-2.2-.1-4.6.1-7.4.5-2.7.5-4.3.7-4.7.7l-5.7,1c.1-.8.2-1.6.2-2.5v-2.9l.2-1v-3.5c.1-.8.2-1.7.2-2.7,0-1.1.1-2.8.3-5,.3-2.3.3-3.4,0-3.3-.9-.9-2.2-1.5-4.1-1.8-4.5-.6-7.4-.1-8.8,1.6-.5.7-1.1,2.1-1.8,4.2-1.7,4.3-2.7,7.5-2.8,9.7-.1.6-.4,1.3-.8,1.9-.3.5-.7,1.9-1,4-.3.3-.5,1.5-.5,3.8-3.3,1.2-5.9,1.8-8,1.8-4.7.7-7.6,1.5-8.8,2.2s-1.1,2.3.2,4.8c1.9,2.3,5.2,3.4,10,3.4,1.1.2,2.5.2,4.1,0h2c.1,0,.1.5,0,1.4v1.2l.3,3c.7,3.3,1,6.7,1,10.2.4,2.5.8,5.3,1.1,8.2s.9,4.7,1.6,5.3v1.9c.2.7.3,1.2.3,1.4.8,3.5,1.7,5.8,2.9,6.8.3,1.5.6,2.3.8,2.6l3.1,6.3c1.2,1,1.8,1.6,1.8,1.8,1.9,1.5,3.3,2.4,4.3,2.5,3.5.4,5.7.5,6.5.5,5,0,7.3-1.5,6.9-4.6l-1.3-2.9c-.8-2.9-1.5-4.8-2.1-5.6-2.3-8.4-4.1-16.5-5.6-24.5l-.5-5c0-1.1-.2-3-.5-5.7-.2-2.7-.4-5.2-.5-7.5l4.4-1.4,7.4-1.5,5.7-.7c1.6-.4,2.9-1.1,3.8-2.3l.7-.8c1-1,1.4-2,1.1-3.1-.1-1.5-.5-2.5-1.4-3.3Z"
        style="fill:url(#k);" />
    <path
        d="m306.5,142.99c-2.5-.1-5.9.5-10.1,1.9-1.9.7-3.5,1.7-4.9,2.9.9-9.2,2.5-17.5,4.9-25.1,0-.4.2-1.5.7-3.5.9-2.7,1.3-4.2,1.3-4.4.2-.9-.7-1.9-2.6-3-.7,0-1.3-.1-2-.4-.3-.1-.9-.4-1.6-.8-3.9-1.2-6.8-1.4-8.7-.5-1,.5-1.6,1.1-1.8,1.8l.3-.1c-1.1.9-1.7,2.1-1.8,3.5-.1.5-.3.9-.7,1.2-.2.3-.6.9-1.1,1.9-1.6,5.6-2.5,11.4-2.5,17.2v5l-1.5,12.4c-.1,0-.1,1.7,0,5.2,0,3.7-.6,9.1-1.8,16.2-.9,5.1-1.4,8.5-1.6,10.4-.1,1.8.2,3,1,3.7l.2,1v2.5c-.1.5.2,1.2,1,1.9l2.9,3.1c.8.7,1.3,1.3,1.5,1.6.3,1,1.1,1.5,2.5,1.5l2,.8c.9.5,2.7.9,5.6,1.1,2.9.3,4.5-.3,4.6-1.8.2-1.4,0-3.1-.7-5.2-.7-2.1-1-4.3-1-6.5,0-13.8,1.7-23.5,5.1-29,2.1-2.8,4.4-4.2,7-4.2,3.3.2,5.3,2.5,6.1,6.8.9,4.4.8,8.9-.3,13.6-.4,1.5-1.1,4.5-2,8.7-.1.3-.1,1.4.2,3.4.2,1.9.3,3.4.2,4.4,0,1,.1,1.8.3,2.3.3.5.5,1,.7,1.5-.1,1.2.7,2,2.3,2.3l1,.5c.3.2.9.3,1.8.4.9.2,1.4.2,1.6.1,6.1,1.9,9.2,2.1,9.2.7,0-.6-.2-1.3-.5-2-.2-.8-.3-2-.3-3.5l.2-4.1c1.9-13.4,2.8-21,2.9-22.6.8-7.3-.3-12.9-3.1-16.8-3.2-5-8.6-7.6-16.5-8Z"
        style="fill:url(#l);" />
</svg>